<svg xmlns="http://www.w3.org/2000/svg" xmlns:xlink="http://www.w3.org/1999/xlink" viewBox="0 0 300 300"><defs><style>.cls-1{fill:url(#radial-gradient);}.cls-2{opacity:0.45;}.cls-27,.cls-28,.cls-3{fill:#fff;}.cls-28,.cls-4{opacity:0.3;}.cls-14,.cls-15,.cls-5{fill:none;stroke-miterlimit:10;}.cls-5{stroke:#030a3d;stroke-width:1.86px;}.cls-29,.cls-6{opacity:0.65;}.cls-7{fill:#0039ff;}.cls-11,.cls-12,.cls-17,.cls-22,.cls-23,.cls-33,.cls-37,.cls-8{opacity:0.75;}.cls-8{fill:url(#linear-gradient);}.cls-9{fill:url(#linear-gradient-2);}.cls-10{fill:url(#linear-gradient-3);}.cls-11{fill:url(#linear-gradient-4);}.cls-12{fill:url(#linear-gradient-5);}.cls-13,.cls-43{opacity:0.35;}.cls-14,.cls-15{stroke:#fff;}.cls-14{stroke-width:0.57px;}.cls-14,.cls-15,.cls-16,.cls-25,.cls-26,.cls-27,.cls-31,.cls-32,.cls-35,.cls-36,.cls-39,.cls-40,.cls-42,.cls-44{opacity:0.5;}.cls-15{stroke-width:1.02px;}.cls-17{fill:url(#linear-gradient-6);}.cls-18{fill:url(#linear-gradient-7);}.cls-19{fill:url(#linear-gradient-8);}.cls-20{fill:url(#linear-gradient-9);}.cls-21,.cls-43{fill:#00dac9;}.cls-22{fill:url(#linear-gradient-10);}.cls-23{fill:url(#linear-gradient-11);}.cls-24{opacity:0.85;fill:url(#linear-gradient-12);}.cls-25{fill:url(#linear-gradient-13);}.cls-26{fill:url(#linear-gradient-14);}.cls-29,.cls-33{fill:#030a3d;}.cls-30{fill:url(#linear-gradient-15);}.cls-31{fill:url(#linear-gradient-16);}.cls-32{fill:url(#linear-gradient-17);}.cls-34{fill:url(#linear-gradient-18);}.cls-35{fill:url(#linear-gradient-19);}.cls-36{fill:url(#linear-gradient-20);}.cls-37{fill:url(#linear-gradient-21);}.cls-38{fill:url(#linear-gradient-22);}.cls-39{fill:url(#linear-gradient-23);}.cls-40{fill:url(#linear-gradient-24);}.cls-41{fill:url(#linear-gradient-25);}.cls-42{fill:url(#linear-gradient-26);}.cls-44{fill:url(#linear-gradient-27);}</style><radialGradient id="radial-gradient" cx="150.28" cy="-1782.39" r="144.14" gradientTransform="translate(0 1308.57) scale(1 0.62)" gradientUnits="userSpaceOnUse"><stop offset="0.43" stop-color="#0039ff"/><stop offset="0.96" stop-color="#0039ff" stop-opacity="0"/></radialGradient><linearGradient id="linear-gradient" x1="68.93" y1="227.55" x2="68.93" y2="104.9" gradientUnits="userSpaceOnUse"><stop offset="0.32" stop-color="#00dac9" stop-opacity="0.07"/><stop offset="0.34" stop-color="#00dac9" stop-opacity="0.11"/><stop offset="0.52" stop-color="#00dac9" stop-opacity="0.43"/><stop offset="0.68" stop-color="#00dac9" stop-opacity="0.67"/><stop offset="0.82" stop-color="#00dac9" stop-opacity="0.85"/><stop offset="0.93" stop-color="#00dac9" stop-opacity="0.96"/><stop offset="1" stop-color="#00dac9"/></linearGradient><linearGradient id="linear-gradient-2" x1="176.01" y1="145.98" x2="205.26" y2="266.75" gradientUnits="userSpaceOnUse"><stop offset="0" stop-color="#0039ff"/><stop offset="0.38" stop-color="#030a3d"/><stop offset="0.48" stop-color="#030a3d" stop-opacity="0.73"/><stop offset="0.63" stop-color="#030a3d" stop-opacity="0.46"/><stop offset="0.79" stop-color="#030a3d" stop-opacity="0.3"/><stop offset="1" stop-color="#030a3d" stop-opacity="0.25"/></linearGradient><linearGradient id="linear-gradient-3" x1="235.02" y1="122.87" x2="258.4" y2="240.16" xlink:href="#linear-gradient-2"/><linearGradient id="linear-gradient-4" x1="108.95" y1="245.18" x2="108.95" y2="128.95" xlink:href="#linear-gradient"/><linearGradient id="linear-gradient-5" x1="138.94" y1="262.52" x2="138.94" y2="146.28" xlink:href="#linear-gradient"/><linearGradient id="linear-gradient-6" x1="162.61" y1="98" x2="142.31" y2="98" gradientUnits="userSpaceOnUse"><stop offset="0" stop-color="#fff"/><stop offset="1" stop-color="#fff" stop-opacity="0.25"/></linearGradient><linearGradient id="linear-gradient-7" x1="227.13" y1="89.31" x2="182.22" y2="89.31" gradientUnits="userSpaceOnUse"><stop offset="0" stop-color="#030a3d"/><stop offset="1" stop-color="#030a3d" stop-opacity="0.5"/></linearGradient><linearGradient id="linear-gradient-8" x1="1343.57" y1="96.78" x2="1319.76" y2="96.78" gradientTransform="matrix(-1, 0, 0, 1, 1506.53, 0)" gradientUnits="userSpaceOnUse"><stop offset="0" stop-color="#030a3d"/><stop offset="1" stop-color="#030a3d" stop-opacity="0.25"/></linearGradient><linearGradient id="linear-gradient-9" x1="1384.88" y1="121.01" x2="1355.67" y2="121.01" gradientTransform="matrix(-1, 0, 0, 1, 1506.53, 0)" xlink:href="#linear-gradient-7"/><linearGradient id="linear-gradient-10" x1="68.93" y1="120.94" x2="68.93" y2="88.05" xlink:href="#linear-gradient-6"/><linearGradient id="linear-gradient-11" x1="108.94" y1="138.65" x2="108.94" y2="114.69" xlink:href="#linear-gradient-6"/><linearGradient id="linear-gradient-12" x1="139.15" y1="156.2" x2="139.15" y2="132.08" xlink:href="#linear-gradient-6"/><linearGradient id="linear-gradient-13" x1="1354.21" y1="128.49" x2="1297.05" y2="128.49" gradientTransform="matrix(-1, 0, 0, 1, 1506.53, 0)" gradientUnits="userSpaceOnUse"><stop offset="0" stop-color="#030a3d" stop-opacity="0.75"/><stop offset="0.12" stop-color="#030a3d" stop-opacity="0.59"/><stop offset="0.33" stop-color="#030a3d" stop-opacity="0.15"/><stop offset="0.39" stop-color="#030a3d" stop-opacity="0"/></linearGradient><linearGradient id="linear-gradient-14" x1="1278.69" y1="96.66" x2="1254.89" y2="96.66" gradientTransform="matrix(-1, 0, 0, 1, 1506.53, 0)" gradientUnits="userSpaceOnUse"><stop offset="0" stop-color="#030a3d" stop-opacity="0.75"/><stop offset="0.71" stop-color="#030a3d" stop-opacity="0.1"/></linearGradient><linearGradient id="linear-gradient-15" x1="133.14" y1="94.23" x2="133.14" y2="118.74" gradientUnits="userSpaceOnUse"><stop offset="0" stop-color="#030a3d"/><stop offset="0.04" stop-color="#030a3d" stop-opacity="0.83"/><stop offset="0.14" stop-color="#030a3d" stop-opacity="0.51"/><stop offset="0.24" stop-color="#030a3d" stop-opacity="0.31"/><stop offset="0.34" stop-color="#030a3d" stop-opacity="0.25"/></linearGradient><linearGradient id="linear-gradient-16" x1="1352.97" y1="99.62" x2="1352.97" y2="118.74" gradientTransform="matrix(-0.7, 0, 0, 1, 1073.33, 0)" gradientUnits="userSpaceOnUse"><stop offset="0" stop-color="#00dac9"/><stop offset="0.96" stop-color="#00dac9" stop-opacity="0.07"/></linearGradient><linearGradient id="linear-gradient-17" x1="1333.05" y1="91.55" x2="1333.05" y2="110.68" xlink:href="#linear-gradient-16"/><linearGradient id="linear-gradient-18" x1="140.54" y1="49.09" x2="140.54" y2="79.98" xlink:href="#linear-gradient-15"/><linearGradient id="linear-gradient-19" x1="1346.52" y1="55.47" x2="1346.52" y2="79.98" xlink:href="#linear-gradient-16"/><linearGradient id="linear-gradient-20" x1="1321.31" y1="45.25" x2="1321.31" y2="69.76" xlink:href="#linear-gradient-16"/><linearGradient id="linear-gradient-21" x1="142.84" y1="44.74" x2="137.75" y2="51.51" xlink:href="#linear-gradient-6"/><linearGradient id="linear-gradient-22" x1="235.76" y1="60.55" x2="235.76" y2="91.44" gradientUnits="userSpaceOnUse"><stop offset="0" stop-color="#030a3d"/><stop offset="0.07" stop-color="#030a3d" stop-opacity="0.83"/><stop offset="0.25" stop-color="#030a3d" stop-opacity="0.51"/><stop offset="0.43" stop-color="#030a3d" stop-opacity="0.31"/><stop offset="0.62" stop-color="#030a3d" stop-opacity="0.25"/></linearGradient><linearGradient id="linear-gradient-23" x1="1210.58" y1="67.16" x2="1210.58" y2="91.44" xlink:href="#linear-gradient-16"/><linearGradient id="linear-gradient-24" x1="1185.36" y1="56.94" x2="1185.36" y2="81.22" xlink:href="#linear-gradient-16"/><linearGradient id="linear-gradient-25" x1="237.74" y1="56.21" x2="231.08" y2="66.08" gradientUnits="userSpaceOnUse"><stop offset="0.21" stop-color="#fff" stop-opacity="0.55"/><stop offset="0.45" stop-color="#fff" stop-opacity="0.35"/><stop offset="0.7" stop-color="#fff" stop-opacity="0.16"/><stop offset="0.89" stop-color="#fff" stop-opacity="0.04"/><stop offset="1" stop-color="#fff" stop-opacity="0"/></linearGradient><linearGradient id="linear-gradient-26" x1="176.26" y1="134.6" x2="176.26" y2="207.16" gradientUnits="userSpaceOnUse"><stop offset="0.04" stop-color="#00dac9" stop-opacity="0.07"/><stop offset="0.48" stop-color="#00dac9" stop-opacity="0.33"/><stop offset="1" stop-color="#00dac9" stop-opacity="0.65"/></linearGradient><linearGradient id="linear-gradient-27" x1="207.21" y1="116.62" x2="207.21" y2="189.18" xlink:href="#linear-gradient-26"/></defs><title>uslugi</title><g id="Layer_1" data-name="Layer 1"><ellipse class="cls-1" cx="150.28" cy="199.94" rx="144.14" ry="89.65"/><g class="cls-2"><polygon class="cls-3" points="196.18 166.88 151.86 141.39 46.77 202.07 91.09 227.55 196.18 166.88"/><polygon class="cls-3" points="256.95 202.07 201.5 170.02 172.2 186.96 227.65 219 256.95 202.07"/><polygon class="cls-3" points="151.9 262.74 222.22 222 196.87 207.38 126.43 248.05 151.9 262.74"/><polygon class="cls-3" points="191.9 204.52 166.77 189.96 137.57 206.87 162.69 221.38 191.9 204.52"/><polygon class="cls-3" points="96.44 230.69 121.46 245.19 157.37 224.45 132.26 209.94 96.44 230.69"/></g><g class="cls-4"><line class="cls-5" x1="132.27" y1="209.95" x2="121.46" y2="245.18"/><line class="cls-5" x1="96.44" y1="230.69" x2="157.37" y2="224.45"/><line class="cls-5" x1="196.87" y1="207.38" x2="151.9" y2="262.74"/><line class="cls-5" x1="126.43" y1="248.05" x2="222.22" y2="222"/><line class="cls-5" x1="151.86" y1="141.39" x2="91.09" y2="227.55"/><line class="cls-5" x1="46.77" y1="202.07" x2="196.18" y2="166.88"/><line class="cls-5" x1="227.65" y1="219" x2="201.5" y2="170.02"/><line class="cls-5" x1="172.2" y1="186.96" x2="256.95" y2="202.07"/><line class="cls-5" x1="162.69" y1="221.38" x2="166.77" y2="189.96"/><line class="cls-5" x1="137.57" y1="206.87" x2="191.9" y2="204.52"/></g><g class="cls-6"><polygon class="cls-7" points="196.18 111.52 151.86 86.03 46.77 146.7 91.09 172.19 196.18 111.52"/><polygon class="cls-7" points="256.95 146.7 201.5 114.66 172.2 131.6 227.65 163.64 256.95 146.7"/><polygon class="cls-7" points="151.9 207.38 222.22 166.64 196.87 152.01 126.43 192.68 151.9 207.38"/><polygon class="cls-7" points="191.9 149.15 166.77 134.6 137.57 151.51 162.69 166.02 191.9 149.15"/><polygon class="cls-7" points="96.44 175.33 121.46 189.82 157.37 169.09 132.26 154.58 96.44 175.33"/></g><polygon class="cls-8" points="46.77 104.9 46.77 202.96 91.03 227.55 91.09 130.38 46.77 104.9"/><polygon class="cls-9" points="222.22 120.28 222.22 222.92 151.86 262.74 151.79 160.99 222.22 120.28"/><polygon class="cls-10" points="256.95 100.11 256.95 202.76 227.72 219 227.65 117.25 256.95 100.11"/><polygon class="cls-11" points="96.44 128.95 96.44 231.59 121.39 245.19 121.46 143.43 96.44 128.95"/><polygon class="cls-12" points="126.43 146.28 126.43 248.93 151.38 262.52 151.45 160.77 126.43 146.28"/><g class="cls-13"><polygon class="cls-14" points="113.41 174.3 121.6 178.66 142.13 166.88 134.16 162.39 113.41 174.3"/><polygon class="cls-14" points="136.07 190.34 151.45 198.69 181.9 181.22 166.86 172.67 136.07 190.34"/><polygon class="cls-15" points="65.28 148.21 92.78 163.13 147.21 131.89 120.32 116.62 65.28 148.21"/><polygon class="cls-14" points="174.1 168.25 189.59 176.73 213.24 163.16 198.02 154.53 174.1 168.25"/><polygon class="cls-14" points="151.45 153.37 159.65 157.72 180.17 145.94 172.21 141.45 151.45 153.37"/><polygon class="cls-14" points="185.46 133.12 215.78 149.94 236.31 138.16 206.22 121.21 185.46 133.12"/></g><g class="cls-16"><polygon class="cls-7" points="196.18 60.53 196.18 45.53 151.86 30.46 46.77 80.72 46.77 95.72 91.09 121.21 196.18 60.53"/><polygon class="cls-7" points="256.95 95.72 256.95 80.72 201.5 59.09 172.2 65.61 172.2 76.03 227.65 112.66 256.95 95.72"/><polygon class="cls-7" points="191.9 93.59 191.9 83.17 166.77 79.03 137.57 85.53 137.57 95.94 162.69 110.45 191.9 93.59"/><polygon class="cls-7" points="96.44 119.76 121.46 134.25 157.37 113.52 157.37 103.11 132.26 99.02 96.44 109.35 96.44 119.76"/><polygon class="cls-17" points="162.77 110.45 137.78 95.96 137.78 85.55 162.77 100.04 162.77 110.45"/><polygon class="cls-18" points="227.49 113.01 172.2 80.62 172.2 65.61 227.49 97.63 227.49 113.01"/><polygon class="cls-19" points="162.77 110.45 192.07 93.52 192.07 83.1 162.77 100.04 162.77 110.45"/><polygon class="cls-20" points="121.42 138.9 157.37 118.11 157.37 103.11 121.42 123.9 121.42 138.9"/><polygon class="cls-7" points="151.9 156.4 222.22 115.66 222.22 100.66 196.87 96.45 126.43 126.7 126.43 141.7 151.9 156.4"/></g><polygon class="cls-7" points="196.18 45.53 151.86 20.05 46.77 80.72 91.09 106.2 196.18 45.53"/><polygon class="cls-21" points="256.95 80.72 201.5 48.68 172.2 65.61 227.65 97.66 256.95 80.72"/><polygon class="cls-7" points="151.9 141.39 222.22 100.66 196.87 86.03 126.43 126.7 151.9 141.39"/><polygon class="cls-7" points="191.9 83.17 166.77 68.61 137.57 85.53 162.69 100.04 191.9 83.17"/><polygon class="cls-21" points="96.44 109.35 121.46 123.84 157.37 103.11 132.26 88.6 96.44 109.35"/><polygon class="cls-22" points="91.09 121.21 46.77 95.72 46.77 80.72 91.09 106.2 91.09 121.21"/><polygon class="cls-23" points="121.43 138.84 96.44 124.35 96.44 109.35 121.43 123.84 121.43 138.84"/><polygon class="cls-24" points="151.86 156.4 126.43 141.7 126.43 126.7 151.86 141.39 151.86 156.4"/><polygon class="cls-21" points="151.86 156.4 222.22 115.66 222.22 100.66 151.86 141.39 151.86 156.4"/><polygon class="cls-21" points="227.65 112.67 256.95 95.72 256.95 80.72 227.65 97.66 227.65 112.67"/><polygon class="cls-25" points="151.86 141.36 222.22 100.63 222.22 115.63 151.86 156.36 151.86 141.36"/><polygon class="cls-26" points="227.65 112.63 256.95 95.69 256.95 80.69 227.65 97.63 227.65 112.63"/><polygon class="cls-3" points="107.45 107.76 109.24 108.69 130.22 96.57 128.53 95.6 107.45 107.76"/><polygon class="cls-3" points="145.99 85.39 147.77 86.31 168.75 74.19 167.06 73.22 145.99 85.39"/><polygon class="cls-27" points="88.96 73.32 103.8 81.39 167.08 44.86 152.51 36.62 88.96 73.32"/><polygon class="cls-27" points="111.69 110.74 119.89 115.1 140.41 103.32 132.45 98.83 111.69 110.74"/><polygon class="cls-28" points="136.07 125.75 151.45 134.09 181.9 116.62 166.86 108.08 136.07 125.75"/><polygon class="cls-7" points="163.44 120.52 170.55 124.3 187.04 114.84 180.11 110.95 163.44 120.52"/><polygon class="cls-28" points="174.1 103.66 189.59 112.13 213.24 98.56 198.02 89.94 174.1 103.66"/><polygon class="cls-28" points="151.45 88.77 159.65 93.13 180.17 81.35 172.21 76.86 151.45 88.77"/><g class="cls-4"><polygon class="cls-7" points="180.17 65.48 215.78 85.35 236.31 73.57 200.93 53.56 180.17 65.48"/></g><polygon class="cls-21" points="78.44 73.03 73.75 70.35 58.34 79.21 63.02 81.89 78.44 73.03"/><polygon class="cls-3" points="154.8 27.37 153.01 26.44 135.36 36.64 137.05 37.61 154.8 27.37"/><polygon class="cls-3" points="84.88 65.78 86.67 66.7 107.65 54.59 105.96 53.61 84.88 65.78"/><polygon class="cls-3" points="80.14 68.54 81.93 69.46 102.91 57.35 101.22 56.37 80.14 68.54"/><polygon class="cls-3" points="93.39 60.86 95.17 61.78 116.16 49.67 114.46 48.69 93.39 60.86"/><polygon class="cls-3" points="117.52 46.93 119.3 47.85 140.28 35.74 138.59 34.76 117.52 46.93"/><polygon class="cls-3" points="130.48 39.45 110.84 50.79 112.54 51.77 132.17 40.43 130.48 39.45"/><polygon class="cls-7" points="163.4 87.57 170.74 91.55 185.26 83.22 178.08 79.14 163.4 87.57"/><polygon class="cls-29" points="140.13 110.68 135.44 108 121.45 116.06 126.14 118.74 140.13 110.68"/><polygon class="cls-30" points="126.14 102.29 126.14 118.74 140.13 110.68 140.13 94.23 126.14 102.29"/><polygon class="cls-31" points="126.14 102.29 126.14 118.74 121.45 116.06 121.45 99.62 126.14 102.29"/><polygon class="cls-32" points="140.13 94.23 140.13 110.68 135.44 108 135.44 91.55 140.13 94.23"/><polygon class="cls-7" points="140.13 94.23 135.44 91.55 121.45 99.62 126.14 102.29 140.13 94.23"/><polygon class="cls-21" points="149.39 49.09 142.65 45.25 124.96 55.47 131.69 59.3 149.39 49.09"/><polygon class="cls-33" points="149.39 69.76 142.65 65.92 124.96 76.14 131.69 79.98 149.39 69.76"/><polygon class="cls-34" points="131.69 59.3 131.69 79.98 149.39 69.76 149.39 49.09 131.69 59.3"/><polygon class="cls-35" points="131.69 59.3 131.69 79.98 124.96 76.14 124.96 55.47 131.69 59.3"/><polygon class="cls-36" points="149.39 49.09 149.39 69.76 142.65 65.92 142.65 45.25 149.39 49.09"/><polygon class="cls-37" points="149.39 49.09 142.65 45.25 124.96 55.47 131.69 59.3 149.39 49.09"/><polygon class="cls-29" points="244.6 81.22 238.25 77.69 220.56 87.91 226.91 91.44 244.6 81.22"/><polygon class="cls-38" points="226.91 70.77 226.91 91.44 244.6 81.22 244.6 60.55 226.91 70.77"/><polygon class="cls-39" points="226.91 70.77 226.91 91.44 220.56 87.83 220.56 67.16 226.91 70.77"/><polygon class="cls-40" points="244.6 60.55 244.6 81.22 238.25 77.61 238.25 56.94 244.6 60.55"/><polygon class="cls-7" points="244.6 60.55 238.25 56.94 220.56 67.16 226.91 70.77 244.6 60.55"/><polygon class="cls-41" points="244.6 60.55 238.26 56.94 220.56 67.16 226.91 70.77 244.6 60.55"/><polygon class="cls-21" points="170.23 120.27 173.26 122 182.28 116.79 179.24 115.05 170.23 120.27"/><polygon class="cls-42" points="170.23 205.43 173.26 207.16 182.28 201.95 182.28 134.6 170.23 141.15 170.23 205.43"/><polygon class="cls-7" points="194.93 102.37 202.04 106.16 215 98.73 208.3 94.7 194.93 102.37"/><polygon class="cls-21" points="201.36 102.13 204.39 103.86 213.41 98.65 210.37 96.91 201.36 102.13"/><polygon class="cls-43" points="170.23 205.43 173.26 207.16 182.28 201.95 179.24 200.21 170.23 205.43"/><polygon class="cls-44" points="201.19 187.45 204.22 189.19 213.24 183.97 213.24 116.62 201.19 123.17 201.19 187.45"/><polygon class="cls-43" points="201.19 187.45 204.22 189.19 213.24 183.97 210.2 182.23 201.19 187.45"/></g></svg>