<svg xmlns="http://www.w3.org/2000/svg" xmlns:xlink="http://www.w3.org/1999/xlink" viewBox="0 0 300 300"><defs><style>.cls-1{fill:url(#radial-gradient);}.cls-12,.cls-2,.cls-7{fill:none;}.cls-2,.cls-7{stroke:#00dac9;stroke-linejoin:round;stroke-width:4.97px;}.cls-2,.cls-20,.cls-21,.cls-22,.cls-23,.cls-7{opacity:0.75;}.cls-3{fill:#0039ff;}.cls-13,.cls-17,.cls-4{fill:#030a3d;}.cls-5,.cls-6{fill:#00dac9;}.cls-10,.cls-11,.cls-17,.cls-27,.cls-5,.cls-8,.cls-9{opacity:0.5;}.cls-7{stroke-linecap:round;}.cls-8{fill:url(#linear-gradient);}.cls-9{fill:url(#linear-gradient-2);}.cls-10{fill:url(#linear-gradient-3);}.cls-11{fill:url(#linear-gradient-4);}.cls-13,.cls-14,.cls-15{opacity:0.7;}.cls-14{fill:url(#linear-gradient-5);}.cls-15{fill:url(#linear-gradient-6);}.cls-16{fill:#fff;}.cls-18{fill:url(#linear-gradient-7);}.cls-19{fill:url(#linear-gradient-8);}.cls-20{fill:url(#linear-gradient-9);}.cls-21{fill:url(#linear-gradient-10);}.cls-22{fill:url(#linear-gradient-11);}.cls-23{fill:url(#linear-gradient-12);}.cls-24{fill:url(#linear-gradient-13);}.cls-25{fill:url(#linear-gradient-14);}.cls-26{opacity:0.4;fill:url(#linear-gradient-15);}</style><radialGradient id="radial-gradient" cx="150" cy="169.78" r="131.59" gradientUnits="userSpaceOnUse"><stop offset="0.21" stop-color="#0039ff"/><stop offset="0.96" stop-color="#0039ff" stop-opacity="0"/></radialGradient><linearGradient id="linear-gradient" x1="1934.62" y1="4414.92" x2="1934.62" y2="4435.45" gradientTransform="translate(2085.07 4566.02) rotate(180)" gradientUnits="userSpaceOnUse"><stop offset="0.22" stop-color="#fff"/><stop offset="0.88" stop-color="#fff" stop-opacity="0"/></linearGradient><linearGradient id="linear-gradient-2" x1="1977.26" y1="4390.29" x2="1977.26" y2="4410.82" xlink:href="#linear-gradient"/><linearGradient id="linear-gradient-3" x1="1891.57" y1="4389.83" x2="1891.57" y2="4410.36" xlink:href="#linear-gradient"/><linearGradient id="linear-gradient-4" x1="1934.62" y1="4365.2" x2="1934.62" y2="4385.73" xlink:href="#linear-gradient"/><linearGradient id="linear-gradient-5" x1="71.91" y1="108.21" x2="105.79" y2="108.21" gradientUnits="userSpaceOnUse"><stop offset="0" stop-color="#00dac9"/><stop offset="1" stop-color="#00dac9" stop-opacity="0"/></linearGradient><linearGradient id="linear-gradient-6" x1="15623.03" y1="108.21" x2="15656.91" y2="108.21" gradientTransform="matrix(-1, 0, 0, 1, 15852.01, 0)" xlink:href="#linear-gradient-5"/><linearGradient id="linear-gradient-7" x1="4878.73" y1="7639.84" x2="4874.49" y2="7632.38" gradientTransform="matrix(0.45, -0.89, -0.89, -0.45, 4816.6, 7813.38)" gradientUnits="userSpaceOnUse"><stop offset="0" stop-color="#00dac9"/><stop offset="0.96" stop-color="#fff" stop-opacity="0.07"/></linearGradient><linearGradient id="linear-gradient-8" x1="11407.71" y1="-5351.18" x2="11404.29" y2="-5357.19" gradientTransform="translate(10006.9 7813.38) rotate(-116.7)" xlink:href="#linear-gradient-7"/><linearGradient id="linear-gradient-9" x1="217.28" y1="56.73" x2="209.05" y2="42.25" gradientUnits="userSpaceOnUse"><stop offset="0" stop-color="#030a3d"/><stop offset="0.96" stop-color="#030a3d" stop-opacity="0.07"/></linearGradient><linearGradient id="linear-gradient-10" x1="243.86" y1="96.83" x2="236.28" y2="83.49" xlink:href="#linear-gradient-9"/><linearGradient id="linear-gradient-11" x1="251.63" y1="130.59" x2="245.35" y2="119.55" xlink:href="#linear-gradient-9"/><linearGradient id="linear-gradient-12" x1="14586.18" y1="113.13" x2="14581.22" y2="104.41" gradientTransform="matrix(-1, 0, 0, 1, 14632.68, 0)" xlink:href="#linear-gradient-9"/><linearGradient id="linear-gradient-13" x1="14513.45" y1="54.63" x2="14506.8" y2="42.92" gradientTransform="matrix(-1, 0, 0, 1, 14587.67, 0)" xlink:href="#linear-gradient-7"/><linearGradient id="linear-gradient-14" x1="9665.61" y1="-8406.9" x2="9657.51" y2="-8419.47" gradientTransform="translate(12194.96 4176.29) rotate(-120.38)" xlink:href="#linear-gradient-7"/><linearGradient id="linear-gradient-15" x1="9687.26" y1="-8375.34" x2="9679.13" y2="-8387.95" gradientTransform="translate(12194.96 4176.29) rotate(-120.38)" xlink:href="#linear-gradient-7"/></defs><title>uslugi</title><g id="Layer_1" data-name="Layer 1"><circle class="cls-1" cx="150" cy="169.78" r="131.59"/><polygon class="cls-2" points="43.48 199.1 150.44 260.86 257.41 199.1 150.44 137.35 43.48 199.1"/><polygon class="cls-3" points="114.54 173.75 150.44 194.48 186.35 173.75 114.54 173.75"/><rect class="cls-3" x="114.54" y="165.12" width="71.81" height="8.63" transform="translate(300.89 338.87) rotate(180)"/><polygon class="cls-4" points="114.54 165.12 150.44 185.85 186.35 165.12 150.44 144.39 114.54 165.12"/><polygon class="cls-3" points="114.54 161.61 150.44 182.34 186.35 161.61 114.54 161.61"/><rect class="cls-3" x="114.54" y="152.98" width="71.81" height="8.63" transform="translate(300.89 314.58) rotate(180)"/><polygon class="cls-4" points="114.54 152.98 150.44 173.71 186.35 152.98 150.44 132.25 114.54 152.98"/><polygon class="cls-3" points="114.54 149.47 150.44 170.2 186.35 149.47 114.54 149.47"/><rect class="cls-3" x="114.54" y="140.84" width="71.81" height="8.63" transform="translate(300.89 290.31) rotate(180)"/><polygon class="cls-3" points="114.54 140.84 150.44 161.57 186.35 140.84 150.44 120.11 114.54 140.84"/><polygon class="cls-5" points="114.54 140.84 150.44 161.57 186.35 140.84 150.44 120.11 114.54 140.84"/><polygon class="cls-6" points="181.71 162.69 185.29 160.62 185.29 155.2 181.71 157.28 181.71 162.69"/><polygon class="cls-6" points="176.63 165.67 180.21 163.6 180.21 158.18 176.63 160.25 176.63 165.67"/><polygon class="cls-6" points="181.71 174.84 185.29 172.76 185.29 167.34 181.71 169.42 181.71 174.84"/><polygon class="cls-6" points="176.63 177.82 180.21 175.74 180.21 170.32 176.63 172.4 176.63 177.82"/><ellipse class="cls-5" cx="147.17" cy="178.06" rx="0.85" ry="1.66" transform="translate(-40.32 43.11) rotate(-14.68)"/><polygon class="cls-5" points="124.04 162.65 124.04 163.72 144.54 175.56 144.54 174.48 124.04 162.65"/><ellipse class="cls-5" cx="147.17" cy="190.21" rx="0.85" ry="1.66" transform="translate(-43.4 43.51) rotate(-14.68)"/><polygon class="cls-5" points="124.04 172.65 124.04 173.72 144.54 185.56 144.54 184.49 124.04 172.65"/><polygon class="cls-5" points="124.04 174.79 124.04 175.86 144.54 187.7 144.54 186.63 124.04 174.79"/><polygon class="cls-3" points="157.17 198.38 193.07 219.11 228.98 198.38 157.17 198.38"/><rect class="cls-3" x="157.17" y="189.75" width="71.81" height="8.63" transform="translate(386.15 388.13) rotate(180)"/><polygon class="cls-4" points="157.17 189.75 193.07 210.48 228.98 189.75 193.07 169.02 157.17 189.75"/><polygon class="cls-3" points="157.17 186.24 193.07 206.97 228.98 186.24 157.17 186.24"/><rect class="cls-3" x="157.17" y="177.61" width="71.81" height="8.63" transform="translate(386.15 363.84) rotate(180)"/><polygon class="cls-4" points="157.17 177.61 193.07 198.34 228.98 177.61 193.07 156.88 157.17 177.61"/><polygon class="cls-3" points="157.17 174.1 193.07 194.83 228.98 174.1 157.17 174.1"/><rect class="cls-3" x="157.17" y="165.47" width="71.81" height="8.63" transform="translate(386.15 339.57) rotate(180)"/><polygon class="cls-3" points="157.17 165.47 193.07 186.2 228.98 165.47 193.07 144.74 157.17 165.47"/><polygon class="cls-5" points="157.17 165.47 193.07 186.2 228.98 165.47 193.07 144.74 157.17 165.47"/><polygon class="cls-6" points="224.34 175.19 227.92 173.11 227.92 167.69 224.34 169.77 224.34 175.19"/><polygon class="cls-6" points="219.26 178.17 222.84 176.09 222.84 170.67 219.26 172.75 219.26 178.17"/><ellipse class="cls-5" cx="189.8" cy="190.56" rx="0.85" ry="1.66" transform="translate(-42.1 54.32) rotate(-14.68)"/><polygon class="cls-5" points="166.67 173 166.67 174.07 187.17 185.91 187.17 184.84 166.67 173"/><polygon class="cls-5" points="166.67 175.14 166.67 176.21 187.17 188.05 187.17 186.98 166.67 175.14"/><polygon class="cls-6" points="224.34 187.32 227.92 185.25 227.92 179.83 224.34 181.91 224.34 187.32"/><polygon class="cls-6" points="219.26 190.3 222.84 188.23 222.84 182.81 219.26 184.88 219.26 190.3"/><polygon class="cls-6" points="224.34 199.47 227.92 197.39 227.92 191.97 224.34 194.05 224.34 199.47"/><polygon class="cls-6" points="219.26 202.45 222.84 200.37 222.84 194.95 219.26 197.03 219.26 202.45"/><ellipse class="cls-5" cx="189.8" cy="202.69" rx="0.85" ry="1.66" transform="translate(-45.17 54.72) rotate(-14.68)"/><ellipse class="cls-5" cx="189.8" cy="214.83" rx="0.85" ry="1.66" transform="translate(-48.25 55.12) rotate(-14.68)"/><polygon class="cls-3" points="71.91 198.38 107.81 219.11 143.72 198.38 71.91 198.38"/><rect class="cls-3" x="71.91" y="189.75" width="71.81" height="8.63" transform="translate(215.62 388.13) rotate(180)"/><polygon class="cls-4" points="71.91 189.75 107.81 210.48 143.72 189.75 107.81 169.02 71.91 189.75"/><polygon class="cls-3" points="71.91 186.24 107.81 206.97 143.72 186.24 71.91 186.24"/><rect class="cls-3" x="71.91" y="177.61" width="71.81" height="8.63" transform="translate(215.62 363.84) rotate(180)"/><polygon class="cls-4" points="71.91 177.61 107.81 198.34 143.72 177.61 107.81 156.88 71.91 177.61"/><polygon class="cls-3" points="71.91 174.1 107.81 194.83 143.72 174.1 71.91 174.1"/><rect class="cls-3" x="71.91" y="165.47" width="71.81" height="8.63" transform="translate(215.62 339.57) rotate(180)"/><polygon class="cls-3" points="71.91 165.47 107.81 186.2 143.72 165.47 107.81 144.74 71.91 165.47"/><polygon class="cls-5" points="71.91 165.47 107.81 186.2 143.72 165.47 107.81 144.74 71.91 165.47"/><polygon class="cls-6" points="139.07 175.19 142.66 173.11 142.66 167.69 139.07 169.77 139.07 175.19"/><polygon class="cls-6" points="134 178.17 137.58 176.09 137.58 170.67 134 172.75 134 178.17"/><ellipse class="cls-5" cx="104.54" cy="190.56" rx="0.85" ry="1.66" transform="translate(-44.88 32.71) rotate(-14.68)"/><polygon class="cls-5" points="81.41 173 81.41 174.07 101.91 185.91 101.91 184.84 81.41 173"/><polygon class="cls-5" points="81.41 175.14 81.41 176.21 101.91 188.05 101.91 186.98 81.41 175.14"/><polygon class="cls-6" points="139.07 187.32 142.66 185.25 142.66 179.83 139.07 181.91 139.07 187.32"/><polygon class="cls-6" points="134 190.3 137.58 188.23 137.58 182.81 134 184.88 134 190.3"/><polygon class="cls-6" points="139.07 199.47 142.66 197.39 142.66 191.97 139.07 194.05 139.07 199.47"/><polygon class="cls-6" points="134 202.45 137.58 200.37 137.58 194.95 134 197.03 134 202.45"/><ellipse class="cls-5" cx="104.54" cy="202.69" rx="0.85" ry="1.66" transform="translate(-47.96 33.11) rotate(-14.68)"/><polygon class="cls-5" points="81.41 185.14 81.41 186.21 101.91 198.04 101.91 196.97 81.41 185.14"/><polygon class="cls-5" points="81.41 187.28 81.41 188.35 101.91 200.19 101.91 199.11 81.41 187.28"/><ellipse class="cls-5" cx="104.54" cy="214.83" rx="0.85" ry="1.66" transform="translate(-51.03 33.51) rotate(-14.68)"/><polygon class="cls-5" points="81.41 197.28 81.41 198.35 101.91 210.19 101.91 209.12 81.41 197.28"/><polygon class="cls-5" points="81.41 199.42 81.41 200.49 101.91 212.33 101.91 211.25 81.41 199.42"/><polygon class="cls-3" points="114.54 222.99 150.44 243.72 186.35 222.99 114.54 222.99"/><rect class="cls-3" x="114.54" y="214.36" width="71.81" height="8.63" transform="translate(300.89 437.35) rotate(180)"/><polygon class="cls-4" points="114.54 214.36 150.44 235.09 186.35 214.36 150.44 193.63 114.54 214.36"/><polygon class="cls-3" points="114.54 210.85 150.44 231.58 186.35 210.85 114.54 210.85"/><rect class="cls-3" x="114.54" y="202.22" width="71.81" height="8.63" transform="translate(300.89 413.07) rotate(180)"/><polygon class="cls-4" points="114.54 202.22 150.44 222.95 186.35 202.22 150.44 181.49 114.54 202.22"/><polygon class="cls-3" points="114.54 198.71 150.44 219.44 186.35 198.71 114.54 198.71"/><rect class="cls-3" x="114.54" y="190.08" width="71.81" height="8.63" transform="translate(300.89 388.8) rotate(180)"/><polygon class="cls-3" points="114.54 190.08 150.44 210.81 186.35 190.08 150.44 169.35 114.54 190.08"/><polygon class="cls-5" points="114.54 190.08 150.44 210.81 186.35 190.08 150.44 169.35 114.54 190.08"/><polygon class="cls-6" points="181.71 199.8 185.29 197.72 185.29 192.3 181.71 194.38 181.71 199.8"/><polygon class="cls-6" points="176.63 202.78 180.21 200.7 180.21 195.28 176.63 197.36 176.63 202.78"/><ellipse class="cls-5" cx="147.17" cy="215.17" rx="0.85" ry="1.66" transform="matrix(0.97, -0.25, 0.25, 0.97, -49.73, 44.32)"/><polygon class="cls-5" points="124.04 197.61 124.04 198.69 144.54 210.52 144.54 209.45 124.04 197.61"/><polygon class="cls-5" points="124.04 199.75 124.04 200.83 144.54 212.66 144.54 211.59 124.04 199.75"/><polygon class="cls-6" points="181.71 211.94 185.29 209.86 185.29 204.44 181.71 206.52 181.71 211.94"/><polygon class="cls-6" points="176.63 214.92 180.21 212.84 180.21 207.42 176.63 209.5 176.63 214.92"/><polygon class="cls-6" points="181.71 224.08 185.29 222 185.29 216.58 181.71 218.66 181.71 224.08"/><polygon class="cls-6" points="176.63 227.06 180.21 224.98 180.21 219.56 176.63 221.64 176.63 227.06"/><ellipse class="cls-5" cx="147.17" cy="227.31" rx="0.85" ry="1.66" transform="matrix(0.97, -0.25, 0.25, 0.97, -52.8, 44.72)"/><polygon class="cls-5" points="124.04 209.75 124.04 210.82 144.54 222.66 144.54 221.59 124.04 209.75"/><polygon class="cls-5" points="124.04 211.89 124.04 212.96 144.54 224.8 144.54 223.72 124.04 211.89"/><ellipse class="cls-5" cx="147.17" cy="239.45" rx="0.85" ry="1.66" transform="translate(-55.88 45.11) rotate(-14.68)"/><polygon class="cls-5" points="124.04 221.89 124.04 222.97 144.54 234.8 144.54 233.73 124.04 221.89"/><polygon class="cls-5" points="124.04 224.03 124.04 225.1 144.54 236.94 144.54 235.87 124.04 224.03"/><ellipse class="cls-5" cx="107.81" cy="165.47" rx="18.12" ry="10.26"/><ellipse class="cls-5" cx="150.86" cy="140.84" rx="18.12" ry="10.26"/><ellipse class="cls-5" cx="193.49" cy="165.93" rx="18.12" ry="10.26"/><path class="cls-5" d="M168.53,190V119H132.32v71.53c0,5.66,8.12,10.26,18.12,10.26s18.12-4.6,18.12-10.26A5.49,5.49,0,0,0,168.53,190Z"/><path class="cls-5" d="M211.58,165.35V94.4h-36.2v71.53c0,5.67,8.11,10.26,18.11,10.26s18.12-4.59,18.12-10.26A5.49,5.49,0,0,0,211.58,165.35Z"/><path class="cls-5" d="M125.9,164.89V94H89.69v71.52c0,5.67,8.12,10.26,18.12,10.26s18.12-4.59,18.12-10.26A5.49,5.49,0,0,0,125.9,164.89Z"/><ellipse class="cls-5" cx="150.44" cy="190.56" rx="18.12" ry="10.26"/><polyline class="cls-7" points="180.49 241.56 180.49 236.15 168.71 229.35"/><polyline class="cls-7" points="223.12 216.95 223.12 211.54 211.34 204.74"/><polyline class="cls-7" points="120.9 241.56 120.9 236.15 132.68 229.35"/><polyline class="cls-7" points="78.27 216.95 78.27 211.54 90.05 204.74"/><ellipse class="cls-8" cx="150.44" cy="140.84" rx="18.12" ry="10.26"/><ellipse class="cls-9" cx="107.81" cy="165.47" rx="18.12" ry="10.26"/><ellipse class="cls-10" cx="193.49" cy="165.93" rx="18.12" ry="10.26"/><ellipse class="cls-11" cx="150.44" cy="190.56" rx="18.12" ry="10.26"/><path class="cls-3" d="M239.24,99.53v-.6a49.62,49.62,0,0,0-1-9.44c-3.24-16.63-13.71-30.65-23.4-31.32C210,44.2,201.83,32.74,193,27.67c-11.59-6.68-21.42-.87-24.86,13-.84,3.44-3,4.18-3,8.54,0,.18-.39,1.31-.39,1.48-.57-.13,1,2,.42,2-5.42-.13-9.12,5.61-9.12,14.58,0,11.66,6,25.63,13.63,30.05l64,37.91,2.42-.63.24.13-1.53.42,3.76,2.75,4.9-2.79h0c2.18-1.22,3.82-3.86,4.54-7.67C249.77,118.46,245.82,105.94,239.24,99.53ZM170,91.77c-5.43-3.16-10-12-10.67-20.56-.73-9.43-.88-15.38,5-13.09.1,0,.79,2.69.89,2.7s4-2.43,4-2.48c.55-.32.81-.81.75-1.78,0-.78,0-1.54,0-2.32,0-12.45,4.3-21.49,11.34-23.77,11-3.55,22.62,11.18,29.12,31.66.39,1.23,3.72,1.09,4.42,1,1.87-.1,2.66,2.84,4.68,4,8.51,4.9,13,18.07,13,31,0,.78.81,2.69.76,3.42-.07,1.2,1.93,3.77,2.74,4.4,4.52,3.61,6.1,8.82,6.13,15.79,0,7.8-.89,11-6,8.16Z"/><path class="cls-3" d="M244.27,96.66v-.61a49.62,49.62,0,0,0-1-9.44C240.08,70,229.61,56,219.92,55.3c-4.85-14-13.06-25.44-21.85-30.51-11.59-6.68-21.42-.87-24.85,13.05-.85,3.44-3,4.18-3,8.55,0,.17-.39,1.3-.39,1.48-.57-.13,1,2,.43,2-5.42-.13-9.13,5.61-9.13,14.57,0,11.66,6,25.64,13.63,30.05l64,37.92,2.41-.64.24.13-1.53.42,3.76,2.76,4.9-2.8h0c2.18-1.23,3.81-3.86,4.54-7.68C254.81,115.59,250.85,103.06,244.27,96.66ZM175,88.89c-5.43-3.15-10-12-10.67-20.56-.73-9.42-.88-15.38,5-13.08.1,0,.79,2.68.89,2.69s4-2.43,4-2.47a1.67,1.67,0,0,0,.75-1.79c0-.78,0-1.54,0-2.32,0-12.45,4.3-21.49,11.34-23.76,11-3.56,22.63,11.18,29.12,31.65.39,1.23,3.72,1.09,4.42,1.06,1.87-.11,2.66,2.83,4.69,4,8.51,4.9,13,18.06,13,31,0,.78.81,2.69.77,3.42-.07,1.21,1.92,3.77,2.74,4.41,4.51,3.6,6.09,8.81,6.12,15.79,0,7.79-.89,11-6,8.15Z"/><path class="cls-3" d="M247.2,95v-.6a50.4,50.4,0,0,0-1-9.44c-3.23-16.63-13.71-30.65-23.4-31.32C218,39.64,209.79,28.18,201,23.11c-11.59-6.68-21.41-.86-24.85,13.06-.85,3.44-3,4.18-3,8.54,0,.18-.4,1.31-.4,1.48-.56-.13,1,2.05.43,2-5.42-.13-9.12,5.61-9.12,14.58,0,11.65,6,25.63,13.63,30.05l64,37.91,2.42-.63.23.13-1.53.41,3.76,2.76,4.91-2.8h0c2.18-1.23,3.82-3.86,4.54-7.68C257.73,113.91,253.78,101.39,247.2,95Zm-69.29-7.77c-5.43-3.15-10-12-10.66-20.56-.74-9.42-.88-15.38,5-13.08.1,0,.79,2.69.88,2.69s4-2.42,4.06-2.47c.55-.32.8-.81.75-1.79,0-.78-.06-1.54-.06-2.31,0-12.46,4.31-21.49,11.34-23.77,11-3.55,22.63,11.18,29.12,31.66.39,1.22,3.72,1.09,4.43,1.05,1.87-.1,2.66,2.83,4.68,4,8.51,4.9,13,18.06,13,31,0,.78.8,2.69.76,3.42-.07,1.21,1.93,3.77,2.74,4.41,4.52,3.61,6.09,8.82,6.13,15.79,0,7.79-.89,11.05-6,8.16Z"/><path class="cls-3" d="M242.68,97.58V97a49.46,49.46,0,0,0-1-9.44c-3.24-16.63-13.71-30.65-23.4-31.32-4.85-14-13.06-25.44-21.85-30.51-11.59-6.68-21.42-.86-24.86,13.06-.85,3.44-3,4.18-3,8.54,0,.18-.39,1.31-.39,1.48-.57-.13,1,2.05.42,2-5.42-.13-9.12,5.61-9.12,14.58,0,11.65,6,25.63,13.63,30.05l64,37.91,2.42-.63a1.71,1.71,0,0,1,.23.13l-1.52.41,3.76,2.76,4.9-2.8h0c2.18-1.23,3.82-3.86,4.54-7.68C253.21,116.51,249.26,104,242.68,97.58ZM173.4,89.81c-5.43-3.15-10-12-10.67-20.56-.73-9.42-.88-15.38,5-13.08.1,0,.79,2.69.89,2.69s4-2.42,4-2.47c.55-.32.81-.81.75-1.79,0-.78,0-1.54,0-2.31,0-12.46,4.3-21.49,11.33-23.77,11-3.55,22.63,11.18,29.13,31.65.39,1.23,3.72,1.1,4.42,1.06,1.87-.1,2.66,2.83,4.68,4,8.51,4.9,13,18.06,13,31,0,.78.81,2.69.76,3.42-.07,1.21,1.93,3.77,2.74,4.41,4.52,3.61,6.1,8.82,6.13,15.79,0,7.79-.89,11.05-6,8.16Z"/><path class="cls-6" d="M151.81,69.85c0,11.66,6.2,24.69,13.85,29.11l66.21,38.22c5.6,3.22,10.49.27,11.9-7.17,1.71-9-2.24-21.57-8.83-28v-.6A49.54,49.54,0,0,0,234,92c-3.23-16.63-13.71-30.65-23.4-31.32-4.85-14-13.05-25.43-21.85-30.5-14.45-8.34-26.16,2.76-26.16,24.79v.53C156.28,54,151.81,60,151.81,69.85ZM155,73.7c-.73-9.42,3.47-15.19,9.38-12.9.82.33,1.42-.44,1.35-1.75,0-.78-.06-1.54-.06-2.31C165.66,44.29,170,35.25,177,33c11-3.55,25.14,10.17,31.63,30.64.4,1.23,1.21,2.11,1.92,2.07a10.67,10.67,0,0,1,5.89,1.61c8.51,4.9,15.42,19.39,15.43,32.36,0,.78,0,1.54-.08,2.27a4.25,4.25,0,0,0,1.33,3.29c4.52,3.61,7.89,11.43,7.92,18.4,0,7.79-4.07,11.77-9.17,8.88L165.66,94.27C160.23,91.11,155.66,82.3,155,73.7Z"/><path class="cls-12" d="M86.15,43.25A37.54,37.54,0,0,1,93.76,35,27.64,27.64,0,0,0,86.15,43.25Z"/><path class="cls-12" d="M80.59,59.81c-.31,1-1,1.68-1.53,1.65a8.53,8.53,0,0,0-4.69,1.28C67.6,66.64,62.1,78.18,62.09,88.5c0,.62,0,1.23.06,1.81a3.39,3.39,0,0,1-1.06,2.62c-3.6,2.87-6.28,9.1-6.3,14.65v0l50.26-29c4.32-2.51,8-9.53,8.49-16.37.16-2,.28-3.88.28-5.44L112.47,56s0,.08,0,.08-.61-.34-1.26-.75v0s-1.36-.81-2.3-1.39c0,0,0,.05,0,.05s-3.17-1.93-3.23-2a1.35,1.35,0,0,1-.6-1.42c0-.62,0-1.23,0-1.85,0-5.59-1.1-10.32-3-13.7C94,35.74,85,45.78,80.59,59.81Z"/><path class="cls-3" d="M105,50.57a1.35,1.35,0,0,0,.6,1.42c.06,0,3.16,2,3.23,2s0,0,0-.05c.94.58,2.25,1.39,2.3,1.39v0c.65.41,1.23.75,1.26.75s0,0,0-.08l1.35.84c0,1.56-.12,3.39-.28,5.44-.53,6.84-4.17,13.86-8.49,16.37l-50.26,29c0,6.18,3.25,9.33,7.3,7L114.8,84.22c4.33-2.52,8-9.53,8.5-16.37.58-7.51-2.76-12.1-7.47-10.28-.65.26-1.13-.35-1.07-1.39,0-.62,0-1.23,0-1.84,0-9.92-3.43-17.11-9-18.93A9.38,9.38,0,0,0,102,35c2,3.38,3,8.11,3,13.7C105.05,49.34,105,50,105,50.57Z"/><path class="cls-3" d="M117.25,53.34a6,6,0,0,1,2.38-.08,6,6,0,0,0-2.4-1.72c0,.46,0,.91,0,1.38Z"/><path class="cls-3" d="M56.71,119h0l-.05,0Z"/><path class="cls-3" d="M52.61,112.67c-1.36-7.2,1.79-17.17,7-22.27v-.48a39.63,39.63,0,0,1,.76-7.52C63,69.16,71.31,58,79,57.47a59.1,59.1,0,0,1,7.12-14.22A27.64,27.64,0,0,1,93.76,35a24,24,0,0,1,2.67-1.8c3.95-2.28,7.64-2.73,10.79-1.63a10.69,10.69,0,0,0-3.14-1.89,10.57,10.57,0,0,0-1.88-1.18,10.64,10.64,0,0,0-1.85-1c-3.66-2.76-8.44-2.94-13.68.08-7,4-13.54,13.16-17.4,24.29-7.71.53-16,11.69-18.63,24.93a39.6,39.6,0,0,0-.75,7.52v.48c-5.25,5.1-8.39,15.07-7,22.27.57,3,1.88,5.13,3.61,6.11h0l2.31,1.32,0,0h0l1.19.68.08,0h0l3.9,2.23h0l1.86,1.06C54.3,117.46,53.14,115.47,52.61,112.67Z"/><path class="cls-6" d="M86.15,43.25a64.83,64.83,0,0,0-7,15.38c-.31,1-3,.87-3.53.84-1.48-.08-2.11,2.26-3.72,3.18C65.14,66.55,61.58,77,61.57,87.36c0,.62-.64,2.14-.61,2.73.06,1-1.53,3-2.18,3.51-3.6,2.87-4.85,7-4.88,12.57,0,.7,0,1.34,0,2l.86-.5v0c0-5.55,2.7-11.78,6.3-14.65a3.39,3.39,0,0,0,1.06-2.62c0-.58-.06-1.19-.06-1.81,0-10.32,5.51-21.86,12.28-25.76a8.53,8.53,0,0,1,4.69-1.28c.57,0,1.22-.67,1.53-1.65C85,45.78,94,35.74,102,35a15.08,15.08,0,0,0-1.36-2A10.37,10.37,0,0,0,93.76,35,37.54,37.54,0,0,0,86.15,43.25Z"/><path class="cls-6" d="M119.63,53.26a9.93,9.93,0,0,1,1.81,3.18l.29.1,2.73,7.33-1.1,10.2L119,82.93l-8,4.23,0-.11L60.6,116.9l-1.93-.5-.19.1,1.22.33-3,2.19a5.89,5.89,0,0,0,5.38-.64L114.8,88c6.1-3.52,11-13.89,11-23.17C125.83,58.24,123.36,53.87,119.63,53.26Z"/><path class="cls-6" d="M56.66,119l-.83-.47A5.69,5.69,0,0,0,56.66,119Z"/><path class="cls-6" d="M112.79,41.58c.68,2.74,2.39,3.33,2.39,6.81,0,.14.31,1,.31,1.18.23-.06,0,.37-.17.8a6.22,6.22,0,0,1,1.25,1,5.6,5.6,0,0,1,.66.21c-.3-10.75-4.23-18-10-20C109.75,33.68,111.69,37.1,112.79,41.58Z"/><path class="cls-6" d="M118.92,55.57l.14,0-.17-.16Z"/><path class="cls-6" d="M58.48,116.5l.19-.1,1.93.5L111,87.05l0,.11,8-4.23,4.37-8.86,1.1-10.2-2.73-7.33-.29-.1a9.93,9.93,0,0,0-1.81-3.18,6,6,0,0,0-2.38.08v-.42c0-.47,0-.92,0-1.38a5.6,5.6,0,0,0-.66-.21,6.22,6.22,0,0,0-1.25-1c.2-.43.4-.86.17-.8,0-.14-.31-1-.31-1.18,0-3.48-1.71-4.07-2.39-6.81-1.1-4.48-3-7.9-5.57-10-3.15-1.1-6.84-.65-10.79,1.63A24,24,0,0,0,93.76,35a10.37,10.37,0,0,1,6.88-1.92A15.08,15.08,0,0,1,102,35a9.38,9.38,0,0,1,3.77.39c5.6,1.82,9,9,9,18.93,0,.61,0,1.22,0,1.84-.06,1,.42,1.65,1.07,1.39,4.71-1.82,8,2.77,7.47,10.28-.53,6.84-4.17,13.85-8.5,16.37L62.09,114.65c-4.05,2.3-7.32-.85-7.3-7l-.86.5c0-.61,0-1.25,0-2,0-5.56,1.28-9.7,4.88-12.57.65-.51,2.24-2.55,2.18-3.51,0-.59.61-2.11.61-2.73,0-10.32,3.57-20.81,10.35-24.71,1.61-.92,2.24-3.26,3.72-3.18.57,0,3.22.14,3.53-.84a64.83,64.83,0,0,1,7-15.38A59.1,59.1,0,0,0,79,57.47C71.31,58,63,69.16,60.4,82.4a39.63,39.63,0,0,0-.76,7.52v.48c-5.24,5.1-8.39,15.07-7,22.27.53,2.8,1.69,4.79,3.22,5.86l.83.47.05,0,3-2.19Zm60.44-60.93,0-.11.17.16Z"/><polygon class="cls-13" points="228.98 100.7 228.98 96.15 71.91 96.15 71.91 100.7 71.91 100.7 150.44 146.04 228.98 100.7 228.98 100.7"/><polygon class="cls-14" points="105.79 120.27 71.91 100.7 71.91 96.15 105.79 115.73 105.79 120.27"/><polygon class="cls-15" points="195.1 120.27 228.98 100.7 228.98 96.15 195.1 115.73 195.1 120.27"/><polygon class="cls-3" points="71.91 96.15 150.44 141.5 228.98 96.15 150.44 50.81 71.91 96.15"/><polygon class="cls-6" points="85.35 95.54 114.5 112.37 143.66 95.54 114.5 78.71 85.35 95.54"/><polygon class="cls-16" points="149.68 98.54 120.53 115.37 129.35 120.46 158.5 103.63 149.68 98.54"/><polygon class="cls-6" points="184.31 78.36 155.16 95.19 163.98 100.28 193.13 83.45 184.31 78.36"/><polygon class="cls-16" points="149.14 58.01 119.99 74.84 123.27 76.73 152.42 59.9 149.14 58.01"/><polygon class="cls-16" points="157.07 62.59 127.92 79.42 131.19 81.31 160.34 64.48 157.07 62.59"/><polygon class="cls-16" points="165 67.16 135.84 83.99 139.12 85.88 168.27 69.05 165 67.16"/><polygon class="cls-16" points="172.91 71.73 143.76 88.56 147.03 90.45 176.18 73.62 172.91 71.73"/><polygon class="cls-16" points="209.29 91.88 144.78 129.13 147.14 130.47 211.64 93.22 209.29 91.88"/><polygon class="cls-16" points="150.7 132.52 153.05 133.87 200.77 106.31 198.43 104.96 150.7 132.52"/><polygon class="cls-16" points="182.61 99.03 153.46 115.86 157.43 118.15 186.58 101.32 182.61 99.03"/><ellipse class="cls-17" cx="180.44" cy="242.62" rx="2.61" ry="1.5"/><ellipse class="cls-17" cx="223.12" cy="217.74" rx="2.61" ry="1.5"/><ellipse class="cls-17" cx="120.9" cy="242.62" rx="2.61" ry="1.5"/><ellipse class="cls-17" cx="78.27" cy="218.34" rx="2.61" ry="1.5"/><path class="cls-18" d="M172.28,29.55l9.95-6.61s9.63-6,18.85.39c.51.35-13.63,7.48-13.63,7.48S185.94,25.33,172.28,29.55Z"/><path class="cls-19" d="M109.59,32.82l-8-5.32s-7.76-4.84-15.19.31c-.41.28,11,6,11,6S98.59,29.42,109.59,32.82Z"/><path class="cls-20" d="M210.59,60.67l12.25-7.13s-4-11.56-9.51-18.62c-.38-.49-11.64,7.92-11.64,7.92S208.5,53.2,210.59,60.67Z"/><path class="cls-21" d="M235,102,247.2,94.9s.68-8.5-3.89-19.9c-.23-.58-11.64,7.92-11.64,7.92A61.46,61.46,0,0,1,235,102Z"/><path class="cls-22" d="M240.15,137.23l12.25-7.14s6.67-4.27,2.89-19.89c-.15-.61-12,8-12,8S246.43,131.57,240.15,137.23Z"/><path class="cls-23" d="M55.73,118.46,46.17,113s-5.69-3.34-2.72-16c.12-.48,9.41,6.33,9.41,6.33S50.3,113.77,55.73,118.46Z"/><path class="cls-24" d="M80.05,58.06l-10.82-6.2S72.76,42,77,36.75c.31-.39,10.31,7.13,10.31,7.13S81.5,52,80.05,58.06Z"/><path class="cls-25" d="M61.08,91.46l-11.2-6.52s-6.74,7.29-7.34,15.91c0,.52,10.5,5.27,10.5,5.27S56.47,95.89,61.08,91.46Z"/><path class="cls-26" d="M79.71,57.86l-10.44-6s-7.63,0-14.32,12.62c-.25.45,11.75,3.17,11.75,3.17S73.82,61.12,79.71,57.86Z"/><g class="cls-27"><path class="cls-6" d="M150.44,52.25l76.05,43.9-76.05,43.91-76-43.91,76.05-43.9m0-1.44L71.91,96.15l78.53,45.35L229,96.15,150.44,50.81Z"/></g></g></svg>