<svg xmlns="http://www.w3.org/2000/svg" xmlns:xlink="http://www.w3.org/1999/xlink" viewBox="0 0 478.59 447.5"><defs><style>.cls-1{fill:url(#radial-gradient);}.cls-2{fill:url(#linear-gradient);}.cls-12,.cls-3{opacity:0.5;}.cls-3{fill:url(#linear-gradient-2);}.cls-4{fill:url(#linear-gradient-3);}.cls-18,.cls-5{fill:#00e2d1;}.cls-6{fill:url(#linear-gradient-4);}.cls-7{fill:url(#linear-gradient-5);}.cls-11,.cls-8{fill:#030a3d;}.cls-8{opacity:0.65;}.cls-9{opacity:0.83;}.cls-10{fill:#0039ff;}.cls-12,.cls-13{fill:#fff;}.cls-14,.cls-16,.cls-19{opacity:0.75;}.cls-14{fill:url(#linear-gradient-6);}.cls-15,.cls-17{opacity:0.49;}.cls-16{fill:url(#linear-gradient-7);}.cls-17{fill:url(#linear-gradient-8);}.cls-18{opacity:0.71;}.cls-19{fill:url(#linear-gradient-9);}</style><radialGradient id="radial-gradient" cx="239.3" cy="-2815.37" r="239.3" gradientTransform="translate(0 2049.8) scale(1 0.62)" gradientUnits="userSpaceOnUse"><stop offset="0.43" stop-color="#0039ff"/><stop offset="0.96" stop-color="#0039ff" stop-opacity="0"/></radialGradient><linearGradient id="linear-gradient" x1="65.74" y1="201.46" x2="141.65" y2="201.46" gradientUnits="userSpaceOnUse"><stop offset="0.04" stop-color="#00e2d1" stop-opacity="0.07"/><stop offset="0.46" stop-color="#00e2d1" stop-opacity="0.32"/><stop offset="1" stop-color="#00e2d1" stop-opacity="0.65"/></linearGradient><linearGradient id="linear-gradient-2" x1="370.39" y1="1312.57" x2="773.31" y2="1312.57" gradientTransform="translate(-1072.36 773.31) rotate(-90)" xlink:href="#linear-gradient"/><linearGradient id="linear-gradient-3" x1="-629.95" y1="201.46" x2="-705.85" y2="201.46" gradientTransform="matrix(-1, 0, 0, 1, -291.17, 0)" gradientUnits="userSpaceOnUse"><stop offset="0.39" stop-color="#00e2d1" stop-opacity="0"/><stop offset="0.63" stop-color="#00e2d1" stop-opacity="0.25"/><stop offset="1" stop-color="#00e2d1" stop-opacity="0.65"/></linearGradient><linearGradient id="linear-gradient-4" x1="240.21" y1="113.81" x2="240.21" gradientUnits="userSpaceOnUse"><stop offset="0" stop-color="#030a3d"/><stop offset="0.56" stop-color="#030a3d" stop-opacity="0.34"/><stop offset="0.92" stop-color="#030a3d" stop-opacity="0"/></linearGradient><linearGradient id="linear-gradient-5" x1="240.21" y1="229.91" x2="338.77" y2="229.91" gradientUnits="userSpaceOnUse"><stop offset="0" stop-color="#00e2d1" stop-opacity="0.5"/><stop offset="0.02" stop-color="#00e2d1" stop-opacity="0.52"/><stop offset="0.23" stop-color="#00e2d1" stop-opacity="0.69"/><stop offset="0.43" stop-color="#00e2d1" stop-opacity="0.83"/><stop offset="0.63" stop-color="#00e2d1" stop-opacity="0.92"/><stop offset="0.82" stop-color="#00e2d1" stop-opacity="0.98"/><stop offset="1" stop-color="#00e2d1"/></linearGradient><linearGradient id="linear-gradient-6" x1="-778.82" y1="140.21" x2="-616.32" y2="140.21" gradientTransform="matrix(-1, 0, 0, 1, -364.15, 0)" gradientUnits="userSpaceOnUse"><stop offset="0" stop-color="#fff"/><stop offset="1" stop-color="#fff" stop-opacity="0.1"/></linearGradient><linearGradient id="linear-gradient-7" x1="65.73" y1="140.23" x2="228.13" y2="140.23" gradientTransform="matrix(1, 0, 0, 1, 0, 0)" xlink:href="#linear-gradient-6"/><linearGradient id="linear-gradient-8" x1="221.81" y1="179.62" x2="221.81" y2="359.74" gradientUnits="userSpaceOnUse"><stop offset="0" stop-color="#fff"/><stop offset="0.38" stop-color="#fff" stop-opacity="0"/></linearGradient><linearGradient id="linear-gradient-9" x1="258.5" y1="360.12" x2="258.5" y2="179.8" gradientTransform="matrix(1, 0, 0, 1, 0, 0)" xlink:href="#linear-gradient-6"/></defs><title>corporate icon</title><g id="Layer_1" data-name="Layer 1"><ellipse class="cls-1" cx="239.3" cy="298.66" rx="239.3" ry="148.84"/><polygon class="cls-2" points="141.65 346.01 65.74 302.19 65.74 100.73 141.65 56.91 141.65 346.01"/><polygon class="cls-3" points="65.74 100.73 65.74 302.19 240.21 402.92 414.68 302.19 414.68 100.73 240.21 0 65.74 100.73"/><polygon class="cls-4" points="338.77 346.01 414.68 302.19 414.68 100.73 338.77 56.91 338.77 346.01"/><polygon class="cls-5" points="141.65 56.91 240.21 113.81 338.77 56.91 240.21 0 141.65 56.91"/><polygon class="cls-6" points="141.65 56.91 240.21 113.81 338.77 56.91 240.21 0 141.65 56.91"/><polygon class="cls-7" points="338.77 346.01 240.21 402.92 240.21 113.81 338.77 56.91 338.77 346.01"/><polygon class="cls-8" points="252.18 115.78 245.39 119.7 245.39 399.94 252.18 396.02 252.18 115.78"/><polygon class="cls-8" points="265.75 107.95 258.97 111.86 258.97 392.1 265.75 388.19 265.75 107.95"/><polygon class="cls-8" points="279.32 100.11 272.53 104.03 272.53 384.27 279.32 380.35 279.32 100.11"/><polygon class="cls-8" points="292.88 92.28 286.1 96.2 286.1 376.44 292.88 372.52 292.88 92.28"/><polygon class="cls-8" points="306.45 84.45 299.67 88.36 299.67 368.6 306.45 364.69 306.45 84.45"/><polygon class="cls-8" points="320.02 76.61 313.24 80.53 313.24 360.77 320.02 356.85 320.02 76.61"/><polygon class="cls-8" points="333.59 68.78 326.81 72.7 326.81 352.94 333.59 349.02 333.59 68.78"/><polygon class="cls-8" points="228.23 115.78 235.01 119.7 235.01 400.83 228.23 396.92 228.23 115.78"/><polygon class="cls-8" points="214.65 107.95 221.44 111.86 221.44 393 214.65 389.08 214.65 107.95"/><polygon class="cls-8" points="201.09 100.11 207.87 104.03 207.87 385.16 201.09 381.25 201.09 100.11"/><polygon class="cls-8" points="187.52 92.28 194.3 96.2 194.3 377.33 187.52 373.41 187.52 92.28"/><polygon class="cls-8" points="173.95 84.45 180.74 88.36 180.74 369.5 173.95 365.58 173.95 84.45"/><polygon class="cls-8" points="160.38 76.61 167.17 80.53 167.17 361.66 160.38 357.75 160.38 76.61"/><polygon class="cls-8" points="146.81 68.78 153.6 72.7 153.6 353.83 146.81 349.91 146.81 68.78"/><g class="cls-9"><polygon class="cls-10" points="264.82 360.12 414.67 273.6 414.67 100.58 264.82 187.09 264.82 360.12"/></g><polygon class="cls-11" points="278.17 298.71 314.6 277.68 314.6 248.11 278.17 269.15 278.17 298.71"/><polygon class="cls-5" points="321.53 273.66 357.96 252.62 357.96 223.05 321.53 244.09 321.53 273.66"/><polygon class="cls-11" points="364.89 287.53 401.32 266.5 401.32 198 364.89 219.03 364.89 287.53"/><polygon class="cls-5" points="278.17 337.65 357.96 291.55 357.96 261.99 278.17 308.08 278.17 337.65"/><polygon class="cls-5" points="321.53 312.59 357.96 291.55 357.96 261.99 321.53 283.02 321.53 312.59"/><polygon class="cls-12" points="290.15 235.22 392.2 176.3 392.2 147.8 290.15 206.72 290.15 235.22"/><polygon class="cls-13" points="309.56 179.03 407.93 122.23 407.93 119.21 309.56 176.01 309.56 179.03"/><polygon class="cls-5" points="278.17 199.45 301.66 185.9 301.66 178.12 278.17 191.67 278.17 199.45"/><polygon class="cls-5" points="333.28 226.2 356.77 212.65 356.77 204.87 333.28 218.42 333.28 226.2"/><polygon class="cls-5" points="252.18 179.8 402.02 93.32 414.67 100.61 264.82 187.09 252.18 179.8"/><polygon class="cls-14" points="252.18 179.8 402.02 93.32 414.67 100.61 264.82 187.09 252.18 179.8"/><g class="cls-15"><polygon class="cls-10" points="215.49 360.17 65.74 273.72 65.74 100.81 215.49 187.26 215.49 360.17"/></g><g class="cls-9"><polygon class="cls-10" points="215.49 358.94 66.45 272.9 66.45 100.81 215.49 186.85 215.49 358.94"/></g><polygon class="cls-11" points="202.22 297.87 165.98 276.95 165.98 247.54 202.22 268.46 202.22 297.87"/><polygon class="cls-5" points="159.09 272.95 122.85 252.03 122.85 222.62 159.09 243.54 159.09 272.95"/><polygon class="cls-11" points="115.96 286.75 79.72 265.83 79.72 197.7 115.96 218.62 115.96 286.75"/><polygon class="cls-5" points="202.22 336.59 122.85 290.75 122.85 261.34 202.22 307.19 202.22 336.59"/><polygon class="cls-5" points="159.09 311.67 122.85 290.75 122.85 261.34 159.09 282.27 159.09 311.67"/><polygon class="cls-12" points="190.3 234.72 88.8 176.12 88.8 147.77 190.3 206.37 190.3 234.72"/><polygon class="cls-13" points="204.94 198.65 107.1 142.16 107.1 139.15 204.94 195.65 204.94 198.65"/><polygon class="cls-5" points="97.33 139.15 73.96 125.68 73.96 117.93 97.33 131.41 97.33 139.15"/><polygon class="cls-5" points="147.4 225.75 124.03 212.28 124.03 204.53 147.4 218.01 147.4 225.75"/><polygon class="cls-16" points="228.13 179.62 78.37 93.56 65.73 100.85 215.49 186.91 228.13 179.62"/><polygon class="cls-11" points="215.49 359.74 228.13 352.45 228.13 179.62 215.49 186.91 215.49 359.74"/><polygon class="cls-17" points="215.49 359.74 228.13 352.45 228.13 179.62 215.49 186.91 215.49 359.74"/><polygon class="cls-18" points="264.82 360.12 252.18 352.83 252.18 179.8 264.82 187.09 264.82 360.12"/><polygon class="cls-19" points="264.82 360.12 252.18 352.83 252.18 179.8 264.82 187.09 264.82 360.12"/></g></svg>