<svg xmlns="http://www.w3.org/2000/svg" xmlns:xlink="http://www.w3.org/1999/xlink" viewBox="0 0 300 300"><defs><style>.cls-1{fill:url(#radial-gradient);}.cls-2{fill:#00dac9;}.cls-3{fill:url(#linear-gradient);}.cls-4{fill:url(#linear-gradient-2);}.cls-5{fill:url(#linear-gradient-3);}.cls-10,.cls-6{fill:#fff;}.cls-6{stroke:#fff;stroke-miterlimit:10;stroke-width:10.57px;}.cls-18,.cls-7{fill:#030a3d;}.cls-8{fill:url(#linear-gradient-4);}.cls-18,.cls-9{opacity:0.6;}.cls-11,.cls-12,.cls-13{opacity:0.7;}.cls-11{fill:url(#linear-gradient-5);}.cls-12{fill:url(#linear-gradient-6);}.cls-13{fill:url(#linear-gradient-7);}.cls-14{fill:#0039ff;}.cls-15,.cls-16,.cls-17{opacity:0.35;}.cls-15{fill:url(#linear-gradient-8);}.cls-16{fill:url(#linear-gradient-9);}.cls-17{fill:url(#linear-gradient-10);}</style><radialGradient id="radial-gradient" cx="148.28" cy="167.81" r="131.59" gradientUnits="userSpaceOnUse"><stop offset="0.21" stop-color="#0039ff"/><stop offset="0.96" stop-color="#0039ff" stop-opacity="0"/></radialGradient><linearGradient id="linear-gradient" x1="148.08" y1="36.87" x2="148.08" y2="147.61" gradientUnits="userSpaceOnUse"><stop offset="0.3" stop-color="#0039ff"/><stop offset="0.63" stop-color="#00dac9"/></linearGradient><linearGradient id="linear-gradient-2" x1="3855.38" y1="801.39" x2="3898.7" y2="801.39" gradientTransform="matrix(-2.28, -1.32, -1.58, 2.74, 10319.12, 3088.38)" gradientUnits="userSpaceOnUse"><stop offset="0.33" stop-color="#0039ff"/><stop offset="0.75" stop-color="#00dac9"/></linearGradient><linearGradient id="linear-gradient-3" x1="2045.68" y1="-70.06" x2="2088.97" y2="-70.06" gradientTransform="matrix(2.28, -1.32, 1.58, 2.74, -4514.49, 3088.38)" xlink:href="#linear-gradient-2"/><linearGradient id="linear-gradient-4" x1="148.08" y1="102.41" x2="148.08" y2="138.14" gradientUnits="userSpaceOnUse"><stop offset="0.22" stop-color="#fff"/><stop offset="0.88" stop-color="#fff" stop-opacity="0"/></linearGradient><linearGradient id="linear-gradient-5" x1="1320.78" y1="-2980.25" x2="1320.78" y2="-2908.62" gradientTransform="translate(1468.86 -2862.79) rotate(180)" gradientUnits="userSpaceOnUse"><stop offset="0" stop-color="#0039ff"/><stop offset="0.14" stop-color="#012ac0"/><stop offset="0.28" stop-color="#021c88"/><stop offset="0.4" stop-color="#02125f"/><stop offset="0.5" stop-color="#030c46"/><stop offset="0.56" stop-color="#030a3d"/><stop offset="1" stop-color="#ecedef"/></linearGradient><linearGradient id="linear-gradient-6" x1="148.08" y1="38.6" x2="148.08" y2="110.23" gradientTransform="matrix(1, 0, 0, 1, 0, 0)" xlink:href="#linear-gradient-5"/><linearGradient id="linear-gradient-7" x1="148.08" y1="29.92" x2="148.08" y2="101.55" gradientTransform="matrix(1, 0, 0, 1, 0, 0)" xlink:href="#linear-gradient-5"/><linearGradient id="linear-gradient-8" x1="245.2" y1="118.87" x2="230.9" y2="92.14" gradientUnits="userSpaceOnUse"><stop offset="0.31" stop-color="#00dac9"/><stop offset="0.41" stop-color="#00d5cb"/><stop offset="0.52" stop-color="#00c7cf"/><stop offset="0.64" stop-color="#00afd7"/><stop offset="0.76" stop-color="#008ee2"/><stop offset="0.89" stop-color="#0064f1"/><stop offset="1" stop-color="#0039ff"/></linearGradient><linearGradient id="linear-gradient-9" x1="-1323.14" y1="-2505.2" x2="-1268.36" y2="-2505.2" gradientTransform="matrix(0.72, 0, 0, -1, 1054.74, -2273.65)" xlink:href="#linear-gradient-8"/><linearGradient id="linear-gradient-10" x1="82.59" y1="60.51" x2="64.32" y2="91.13" xlink:href="#linear-gradient-8"/></defs><title>uslugi</title><g id="Layer_1" data-name="Layer 1"><circle class="cls-1" cx="148.28" cy="167.81" r="131.59"/><rect class="cls-2" x="126.01" y="136.7" width="36.89" height="50.18"/><polygon class="cls-3" points="194.26 60.2 148.07 36.87 101.89 60.2 101.89 147.61 194.26 147.61 194.26 60.2"/><polygon class="cls-4" points="148.07 186.94 210.71 223.09 251.76 199.89 251.76 154.49 172.52 108.74 148.07 186.94"/><polygon class="cls-5" points="148.07 186.94 85.45 223.09 44.39 199.72 44.39 154.49 123.63 108.74 148.07 186.94"/><path class="cls-6" d="M179.6,119.92c-.34-9.7-14.32-17.51-31.52-17.51s-31.19,7.81-31.53,17.51v40.77c0,9.86,14.12,17.86,31.54,17.86s31.53-8,31.53-17.86Z"/><path class="cls-7" d="M175,151.35c-5.55-5.12-15.51-8.53-26.88-8.53s-21.34,3.41-26.89,8.53h-4.65v9.34c0,9.86,14.12,17.86,31.54,17.86s31.53-8,31.53-17.86v-9.34Z"/><ellipse class="cls-2" cx="148.08" cy="151.7" rx="31.54" ry="17.87"/><path class="cls-7" d="M175,135.63c-5.55-5.12-15.51-8.53-26.88-8.53s-21.34,3.41-26.89,8.53h-4.65V145c0,9.87,14.12,17.87,31.54,17.87s31.53-8,31.53-17.87v-9.34Z"/><ellipse class="cls-2" cx="148.08" cy="135.98" rx="31.54" ry="17.87"/><path class="cls-7" d="M175,119.92c-5.55-5.11-15.51-8.53-26.88-8.53s-21.34,3.42-26.89,8.53h-4.65v9.34c0,9.87,14.12,17.87,31.54,17.87s31.53-8,31.53-17.87v-9.34Z"/><ellipse class="cls-2" cx="148.08" cy="120.28" rx="31.54" ry="17.87"/><ellipse class="cls-8" cx="148.08" cy="120.28" rx="31.54" ry="17.87"/><g class="cls-9"><polygon class="cls-7" points="208.24 195.24 197.39 198.53 207.61 173.12 214.01 169.42 219.73 172.97 208.24 195.24"/><polygon class="cls-7" points="213.33 215.7 207.61 212.15 197.39 198.53 207.67 194.26 213.33 215.7"/><polygon class="cls-7" points="241 173.34 247.41 169.65 242.91 198.61 236.51 202.3 230.79 198.75 241 173.34"/><polygon class="cls-7" points="230.79 159.72 237.19 156.03 242.91 159.58 247.41 169.65 241 173.34 230.79 159.72"/><polygon class="cls-7" points="234.93 169.91 223.03 201.3 221.1 205.43 215.38 201.88 222.97 169.99 229.21 166.36 234.93 169.91"/></g><polygon class="cls-10" points="209.52 198.38 203.11 202.08 213.33 176.66 219.73 172.97 209.52 198.38"/><polygon class="cls-10" points="219.73 212 213.33 215.7 203.11 202.08 209.52 198.38 219.73 212"/><polygon class="cls-10" points="246.72 176.89 253.13 173.2 242.91 198.61 236.51 202.3 246.72 176.89"/><polygon class="cls-10" points="236.51 163.27 242.91 159.58 253.13 173.2 246.72 176.89 236.51 163.27"/><polygon class="cls-2" points="227.35 201.81 221.1 205.43 228.69 173.54 234.93 169.91 227.35 201.81"/><g class="cls-9"><polygon class="cls-7" points="50.27 151.1 44.32 154.51 80.45 180.85 86.17 177.3 86.17 171.82 50.27 151.1"/><polygon class="cls-7" points="50.04 183.95 44.32 187.5 80.45 213.84 86.17 210.29 86.17 204.81 50.04 183.95"/><polygon class="cls-7" points="50.04 161.98 44.32 165.53 62.38 181.43 68.1 177.88 68.1 172.4 50.04 161.98"/><polygon class="cls-7" points="50.04 172.97 44.32 176.52 68.56 195.99 74.28 192.44 74.28 186.96 50.04 172.97"/></g><polygon class="cls-10" points="44.32 154.51 44.32 160 80.45 180.85 80.45 175.37 44.32 154.51"/><polygon class="cls-10" points="44.32 187.5 44.32 192.98 80.45 213.84 80.45 208.36 44.32 187.5"/><polygon class="cls-10" points="44.32 165.53 44.32 171.01 62.38 181.43 62.38 175.95 44.32 165.53"/><polygon class="cls-10" points="44.32 176.52 44.32 182 68.56 195.99 68.56 190.51 44.32 176.52"/><polygon class="cls-11" points="210.57 82.04 148.07 45.95 85.58 82.04 148.07 118.12 210.57 82.04"/><polygon class="cls-12" points="85.58 74.02 148.07 110.1 210.57 74.02 148.07 37.94 85.58 74.02"/><polygon class="cls-13" points="85.58 65.34 148.07 101.42 210.57 65.34 148.07 29.26 85.58 65.34"/><polygon class="cls-14" points="85.58 56.13 148.07 92.21 210.57 56.13 148.07 20.05 85.58 56.13"/><polygon class="cls-2" points="96.28 55.64 119.48 69.03 142.68 55.64 119.48 42.25 96.28 55.64"/><polygon class="cls-10" points="147.47 58.03 124.27 71.42 131.29 75.47 154.49 62.08 147.47 58.03"/><polygon class="cls-2" points="175.03 41.97 151.83 55.36 158.85 59.42 182.05 46.02 175.03 41.97"/><polygon class="cls-10" points="147.04 25.78 123.84 39.17 126.45 40.68 149.65 27.28 147.04 25.78"/><polygon class="cls-10" points="153.35 29.42 130.15 42.81 132.75 44.32 155.95 30.93 153.35 29.42"/><polygon class="cls-10" points="159.66 33.06 136.46 46.45 139.06 47.96 162.26 34.56 159.66 33.06"/><polygon class="cls-10" points="165.95 36.7 142.75 50.09 145.36 51.59 168.56 38.2 165.95 36.7"/><polygon class="cls-10" points="194.91 52.73 143.57 82.37 145.44 83.44 196.78 53.8 194.91 52.73"/><polygon class="cls-10" points="148.28 85.07 150.15 86.14 188.13 64.21 186.26 63.14 148.28 85.07"/><polygon class="cls-10" points="173.68 58.42 150.48 71.81 153.63 73.64 176.83 60.24 173.68 58.42"/><polygon class="cls-2" points="69.17 144.97 69.17 94.48 100.53 76.33 75.92 62.12 44.57 80.27 44.57 132.01 56.88 151.7 69.17 144.97"/><polygon class="cls-2" points="199.56 78.67 226.98 94.48 226.98 152.41 251.58 138.22 251.58 80.27 224.3 64.55 202.6 64.21 199.56 78.67"/><polygon class="cls-2" points="192.08 205.8 148.08 231.14 95.63 200.86 95.63 229.27 148.08 259.55 192.08 234.21 200.52 214.08 192.08 205.8"/><polygon class="cls-15" points="251.58 121.13 226.98 135.34 226.98 94.48 251.58 80.27 251.58 121.13"/><polygon class="cls-16" points="148.08 231.14 100.3 203.55 100.3 231.96 148.08 259.55 148.08 231.14"/><polygon class="cls-17" points="98.78 77.34 69.17 94.48 44.57 80.27 73.75 63.38 98.78 77.34"/><polygon class="cls-18" points="199.56 78.67 199.56 83.08 223.02 97.32 223.02 149.75 226.98 152.41 226.98 97.31 226.98 94.48 199.56 78.67"/><polygon class="cls-18" points="100.53 76.33 100.53 80.74 73.11 97.32 73.11 142.31 69.15 144.97 69.15 97.31 69.15 94.48 100.53 76.33"/><polygon class="cls-18" points="151.68 229.07 192.08 205.8 188.47 203.74 148.09 227 99.25 198.8 95.63 200.86 144.49 229.07 144.48 229.08 146.62 230.29 148.08 231.14 148.09 231.13 148.09 231.14 149.87 230.12 151.69 229.08 151.68 229.07"/><path class="cls-2" d="M148.08,20.77l61.25,35.36L148.08,91.49,86.82,56.13l61.26-35.36m0-.72L85.58,56.13l62.5,36.08,62.49-36.08L148.08,20.05Z"/></g></svg>